<?xml version="1.0" encoding="UTF-8" standalone="no" ?>
<!DOCTYPE svg PUBLIC "-//W3C//DTD SVG 1.1//EN" "http://www.w3.org/Graphics/SVG/1.1/DTD/svg11.dtd">
<svg xmlns="http://www.w3.org/2000/svg" xmlns:xlink="http://www.w3.org/1999/xlink" version="1.1" width="640" height="480" viewBox="0 0 640 480" xml:space="preserve">
<desc>Created with Fabric.js 3.6.6</desc>
<defs>
</defs>
<g transform="matrix(12.15 0 0 11.91 335.5 225.5)"  >
<path style="stroke: none; stroke-width: 1; stroke-dasharray: none; stroke-linecap: butt; stroke-dashoffset: 0; stroke-linejoin: miter; stroke-miterlimit: 4; fill: rgb(0,128,0); fill-rule: nonzero; opacity: 1;"  transform=" translate(-16, -16)" d="M 26.069 14.641 v -1.073 c 0 -0.288 -0.095 -0.671 -0.912 -0.671 h -1.522 v 2.415 h 1.522 c 0.579 0.001 0.912 -0.244 0.912 -0.671 z M 5.334 7.147 l -1.174 0.314 c -2.298 0.616 -4.16 2.978 -4.16 5.276 v 19.263 l 29.92 -8.019 c 1.149 -0.308 2.08 -1.489 2.08 -2.638 v -21.343 l -26.666 7.147 z M 8.618 20.386 v 0.032 c -0.009 0.644 -0.532 1.163 -1.177 1.163 h -1.469 v -8.231 h -2.765 v -1.195 c 0 -0.655 0.534 -1.188 1.189 -1.188 h 6.985 v 1.707 l -0.001 0.091 c 0 0.31 -0.24 0.562 -0.545 0.585 h -2.219 v 7.036 z M 17.674 21.582 l -0.556 -2.008 h -3.193 l -0.421 1.521 l -0.028 0.104 c -0.084 0.224 -0.298 0.383 -0.55 0.383 c 0 0 -0.11 0 -0.198 0 c -0.055 0 -0.102 0 -0.106 0 h -2.008 l 3.235 -10.615 h 1.671 c 1.006 0 1.855 0.661 2.142 1.572 l 0.004 0.015 l 2.765 9.029 h -2.757 z M 28.859 18.962 c 0 1.665 -1.146 2.62 -3.146 2.62 h -4.55 v -10.615 h 4.226 c 2.085 0 3.099 0.791 3.099 2.419 v 1.051 c 0 0.713 -0.284 1.226 -0.886 1.59 c 0.756 0.337 1.257 1.084 1.257 1.93 v 1.005 z M 15.514 13.619 l -0.492 1.782 l -0.577 2.091 h 2.123 l -0.568 -2.088 z M 25.482 17.185 h -1.848 v 2.471 h 1.46 c 0.976 0 1.356 -0.246 1.356 -0.875 v -0.758 c 0 -0.556 -0.326 -0.838 -0.968 -0.838 z" stroke-linecap="round" />
</g>
<g transform="matrix(3.86 0 0 3.86 429.32 126.18)" style=""  >
		<text xml:space="preserve" font-family="'Open Sans', sans-serif" font-size="18" font-style="normal" font-weight="bold" style="stroke: none; stroke-width: 1; stroke-dasharray: none; stroke-linecap: butt; stroke-dashoffset: 0; stroke-linejoin: miter; stroke-miterlimit: 4; fill: rgb(255,255,255); fill-rule: nonzero; opacity: 1; white-space: pre;" ><tspan x="-19.01" y="5.65" >ALT</tspan></text>
</g>
</svg>